<?xml version="1.0" standalone="no"?><!DOCTYPE svg PUBLIC "-//W3C//DTD SVG 1.1//EN" "http://www.w3.org/Graphics/SVG/1.1/DTD/svg11.dtd"><svg t="1619021542420" class="icon" viewBox="0 0 1024 1024" version="1.1" xmlns="http://www.w3.org/2000/svg" p-id="3247" data-spm-anchor-id="a313x.7781069.0.i1" xmlns:xlink="http://www.w3.org/1999/xlink" width="200" height="200"><defs><style type="text/css"></style></defs><path d="M935.68 282.453333 677.973333 702.72 493.653333 402.346667 640 163.84C647.253333 152.746667 661.333333 148.053333 673.28 151.466667L935.68 282.453333M938.666667 843.946667C938.666667 868.266667 917.333333 877.653333 891.306667 864.426667L690.346667 764.16 938.666667 358.826667 938.666667 843.946667M384 850.773333C384 874.666667 365.653333 885.76 344.32 874.666667L108.8 757.76C96 750.933333 85.333333 733.866667 85.333333 719.36L85.333333 176.64C85.333333 157.44 99.413333 149.333333 116.906667 157.013333L371.2 284.16 384 303.786667 384 850.773333M652.373333 744.96 426.666667 631.893333 426.666667 375.893333 652.373333 744.96Z" p-id="3248" fill="#1296db" data-spm-anchor-id="a313x.7781069.0.i0" class=""></path></svg>